# xmcd
#
# Track frame offsets: 
#        150
#        12271
#        28070
#        41478
#        57260
#        74131
#        90470
#        95436
#        112679
#        129917
#        148009
#
# Disc length: 2149 seconds
#
# Revision: 0
# Processed by: cddbd v1.5.2PL0 Copyright (c) Steve Scherf et al.
# Submitted via: ExactAudioCopyFreeDBPlugin 1.0
#
DISCID=8e08630b
DTITLE=Lalah Hathaway - Honestly (Deluxe Edition)
DYEAR=2017
DGENRE=R&B
TTITLE0=Honestly
TTITLE1=Don't Give Up (feat. Lecrea)
TTITLE2=Change Ya Life
TTITLE3=What U Need
TTITLE4=Call on Me
TTITLE5=Won't Let It Go
TTITLE6=Storm
TTITLE7=YoY
TTITLE8=I Can't Wait
TTITLE9=I Can't Wait (Teddy Riley Remix)
TTITLE10=Change Ya Life (Acoustic)
EXTD=
EXTT0=
EXTT1=
EXTT2=
EXTT3=
EXTT4=
EXTT5=
EXTT6=
EXTT7=
EXTT8=
EXTT9=
EXTT10=
PLAYORDER=
